<?xml version="1.0" encoding="UTF-8"?>
<svg width="199px" height="124px" viewBox="0 0 199 124" version="1.1" xmlns="http://www.w3.org/2000/svg" xmlns:xlink="http://www.w3.org/1999/xlink">
    <!-- Generator: Sketch 52.4 (67378) - http://www.bohemiancoding.com/sketch -->
    <title>logo DQ</title>
    <desc>Created with Sketch.</desc>
    <defs>
        <linearGradient x1="50%" y1="0%" x2="50%" y2="100%" id="linearGradient-1">
            <stop stop-color="#FFFFFF" offset="0%"></stop>
            <stop stop-color="#FFFFFF" offset="57.9057624%"></stop>
            <stop stop-color="#FFFFFF" stop-opacity="0.460512908" offset="100%"></stop>
        </linearGradient>
    </defs>
    <g id="Dana-Quene" stroke="none" stroke-width="1" fill="none" fill-rule="evenodd">
        <g id="Splash-screen" transform="translate(-88.000000, -272.000000)" fill="url(#linearGradient-1)">
            <path d="M88,275.15 L131.5,275.15 C139.200039,275.15 146.424966,276.699985 153.175,279.8 C159.925034,282.900015 165.824975,287.024974 170.875,292.175 C175.925025,297.325026 179.899985,303.324966 182.8,310.175 C185.700015,317.025034 187.15,324.199962 187.15,331.7 C187.15,339.100037 185.725014,346.224966 182.875,353.075 C180.024986,359.925034 176.075025,365.949974 171.025,371.15 C165.974975,376.350026 160.075034,380.499984 153.325,383.6 C146.574966,386.700016 139.300039,388.25 131.5,388.25 L88,388.25 L88,275.15 Z M117.4,363.35 L124.15,363.35 C129.250025,363.35 133.79998,362.550008 137.8,360.95 C141.80002,359.349992 145.174986,357.150014 147.925,354.35 C150.675014,351.549986 152.774993,348.225019 154.225,344.375 C155.675007,340.524981 156.4,336.300023 156.4,331.7 C156.4,327.199977 155.650007,323.00002 154.15,319.1 C152.649992,315.199981 150.525014,311.850014 147.775,309.05 C145.024986,306.249986 141.65002,304.050008 137.65,302.45 C133.64998,300.849992 129.150025,300.05 124.15,300.05 L117.4,300.05 L117.4,363.35 Z M156.8,331.7 C156.8,323.299958 158.349985,315.475036 161.45,308.225 C164.550015,300.974964 168.849972,294.650027 174.35,289.25 C179.850027,283.849973 186.424962,279.625015 194.075,276.575 C201.725038,273.524985 210.149954,272 219.35,272 C228.450045,272 236.849961,273.524985 244.55,276.575 C252.250038,279.625015 258.874972,283.849973 264.425,289.25 C269.975028,294.650027 274.299984,300.974964 277.4,308.225 C280.500015,315.475036 282.05,323.299958 282.05,331.7 C282.05,339.500039 280.775013,346.749967 278.225,353.45 C275.674987,360.150034 272.000024,366.099974 267.2,371.3 L286.4,391.4 L259.4,395.6 L249.05,384.95 C244.649978,386.95001 239.975025,388.524994 235.025,389.675 C230.074975,390.825006 224.850027,391.4 219.35,391.4 C210.149954,391.4 201.725038,389.875015 194.075,386.825 C186.424962,383.774985 179.850027,379.550027 174.35,374.15 C168.849972,368.749973 164.550015,362.425036 161.45,355.175 C158.349985,347.924964 156.8,340.100042 156.8,331.7 Z M187.55,331.7 C187.55,336.200022 188.399991,340.349981 190.1,344.15 C191.800008,347.950019 194.099986,351.249986 197,354.05 C199.900014,356.850014 203.274981,359.024992 207.125,360.575 C210.975019,362.125008 215.049979,362.9 219.35,362.9 C221.950013,362.9 224.549987,362.600003 227.15,362 L210.35,344.3 L238.1,340.85 L245.9,349.1 C249.500018,344.099975 251.3,338.300033 251.3,331.7 C251.3,327.199977 250.450008,323.050019 248.75,319.25 C247.049991,315.449981 244.725015,312.150014 241.775,309.35 C238.824985,306.549986 235.425019,304.375008 231.575,302.825 C227.724981,301.274992 223.650021,300.5 219.35,300.5 C215.049979,300.5 210.975019,301.274992 207.125,302.825 C203.274981,304.375008 199.900014,306.549986 197,309.35 C194.099986,312.150014 191.800008,315.449981 190.1,319.25 C188.399991,323.050019 187.55,327.199977 187.55,331.7 Z" id="logo-DQ"></path>
        </g>
    </g>
</svg>